<svg id="Capa_1" enable-background="new 0 0 512.014 512.014" height="512" viewBox="0 0 512.014 512.014" width="512" xmlns="http://www.w3.org/2000/svg"><g><path d="m328.418 345.364-21.606-10.055h-101.56l-21.606 10.055c-15.063 7.01-24.696 22.118-24.696 38.732v113.113c0 4.034 3.27 7.304 7.304 7.304h179.556c4.034 0 7.304-3.27 7.304-7.304v-113.113c-.001-16.614-9.633-31.722-24.696-38.732z" fill="#80b4fb"/><path d="m328.418 345.364-21.606-10.055c-19.412-9.346-29.057-7.587-24.783 10l21.606 10.055c15.063 7.01 24.696 22.118 24.696 38.732v107.113c0 1.19-.291 2.311-.796 3.304h18.275c4.034 0 7.304-3.27 7.304-7.304v-113.113c-.001-16.614-9.633-31.722-24.696-38.732z" fill="#61a2f9"/><path d="m256.006 101.487c-57.623 0-104.399 46.597-104.622 104.218-.168 43.299-4.123 80.611-19.733 98.647-1.296 1.497-.644 3.833 1.254 4.397 82.067 24.354 164.134 24.354 246.2 0 1.898-.563 2.55-2.9 1.254-4.397-15.61-18.036-19.565-55.348-19.733-98.647-.221-57.621-46.997-104.218-104.62-104.218z" fill="#365e7d"/><path d="m230.637 112.487c57.718 0 104.38 46.744 104.623 104.462.181 43.088 4.134 80.212 19.618 98.265 8.077-1.925 16.154-4.073 24.231-6.466 1.898-.562 2.549-2.897 1.254-4.394-15.611-18.035-19.566-55.348-19.734-98.648-.223-57.622-46.999-104.219-104.622-104.219-19.713 0-38.154 5.456-53.898 14.938 9.069-2.565 18.638-3.938 28.528-3.938z" fill="#2b4d66"/><path d="m234.686 351.304-6.766 28.084c-1.034 4.294.815 8.766 4.581 11.074l18.203 11.16c3.268 2.004 7.384 2.004 10.652 0l18.203-11.16c3.766-2.309 5.615-6.78 4.581-11.074l-6.766-28.084c-6.779-14.409-35.902-15.431-42.688 0z" fill="#ffcbbe"/><path d="m181.15 216.887c-1.367-.15-2.567.908-2.567 2.284v26.347 29.987 1.354c0 42.774 34.675 77.448 77.448 77.448 42.774 0 77.448-34.675 77.448-77.448v-58.25c0-1.155-.858-2.123-2.003-2.281-19.406-2.681-36.307-8.781-49.017-20.6-.835-.776-2.092-.847-3-.157-26.135 19.853-59.628 25.569-98.309 21.316z" fill="#ffddce"/><path d="m331.472 216.327c-18.03-2.492-35.686-8.207-49.011-20.599-.835-.777-2.092-.848-3-.158-26.137 19.853-59.629 25.57-98.31 21.317-1.367-.15-2.567.908-2.567 2.284v12.059c0-1.376 1.2-2.434 2.567-2.284 38.68 4.253 72.172 1.537 98.309-18.316.895-.68 2.146-.641 2.968.125 6.109 5.695 13.193 8.417 21.057 10.854 5.133 1.591 8.651 6.311 8.651 11.684v43.564c0 39.151-29.056 71.497-66.776 76.699 3.491.481 7.049.75 10.672.75 42.774 0 77.448-34.675 77.448-77.448 0-3.794 0-61.744 0-58.25 0-1.156-.862-2.123-2.008-2.281z" fill="#ffcbbe"/><path d="m260.568 10.061 21.776 35.7c.742 1.216 1.939 2.086 3.325 2.415l40.682 9.678c3.89.926 5.422 5.64 2.819 8.676l-27.223 31.742c-.927 1.081-1.385 2.488-1.27 3.908l3.367 41.681c.322 3.986-3.689 6.9-7.38 5.362l-38.601-16.082c-1.315-.548-2.794-.548-4.109 0l-38.601 16.082c-3.691 1.538-7.702-1.376-7.38-5.362l3.367-41.681c.115-1.42-.342-2.827-1.27-3.908l-27.225-31.742c-2.603-3.036-1.072-7.75 2.819-8.676l40.682-9.678c1.386-.33 2.583-1.199 3.325-2.415l21.776-35.7c2.081-3.414 7.038-3.414 9.121 0z" fill="#ffd064"/><path d="m258.062 133.141 38.601 16.082c3.691 1.538 7.702-1.376 7.38-5.362l-3.367-41.681c-.115-1.42.342-2.827 1.27-3.908l27.223-31.742c2.603-3.036 1.071-7.75-2.819-8.676l-40.682-9.678c-1.386-.33-2.583-1.199-3.325-2.415l-21.776-35.7c-1.041-1.707-2.801-2.561-4.561-2.561 13.411 50.667 16.076 94.183 0 125.23.699 0 1.398.137 2.056.411z" fill="#ffc250"/><path d="m109.162 68.293 12.691 20.806c.432.709 1.13 1.216 1.938 1.408l23.709 5.641c2.267.539 3.16 3.287 1.643 5.056l-15.866 18.499c-.54.63-.807 1.45-.74 2.278l1.962 24.292c.188 2.323-2.15 4.021-4.301 3.125l-22.497-9.373c-.766-.319-1.629-.319-2.395 0l-22.497 9.373c-2.151.896-4.489-.802-4.301-3.125l1.962-24.292c.067-.828-.2-1.648-.74-2.278l-15.866-18.499c-1.517-1.769-.624-4.517 1.643-5.056l23.709-5.641c.808-.192 1.505-.699 1.938-1.408l12.691-20.806c1.214-1.99 4.103-1.99 5.317 0z" fill="#ffd064"/><path d="m107.701 140.025 22.497 9.373c2.151.896 4.489-.802 4.301-3.125l-1.962-24.292c-.067-.828.2-1.648.74-2.278l15.866-18.499c1.517-1.769.624-4.517-1.643-5.056l-23.709-5.641c-.808-.192-1.505-.699-1.938-1.408l-12.691-20.806c-.607-.995-1.633-1.492-2.658-1.492 7.816 29.529 9.369 54.89 0 72.985.407-.001.814.079 1.197.239z" fill="#ffc250"/><path d="m408.168 68.293 12.691 20.806c.432.709 1.13 1.216 1.938 1.408l23.709 5.641c2.267.539 3.16 3.287 1.643 5.056l-15.866 18.499c-.54.63-.807 1.45-.74 2.278l1.962 24.292c.188 2.323-2.15 4.021-4.301 3.125l-22.497-9.373c-.766-.319-1.629-.319-2.395 0l-22.497 9.373c-2.151.896-4.489-.802-4.301-3.125l1.962-24.292c.067-.828-.2-1.648-.74-2.278l-15.866-18.499c-1.517-1.769-.624-4.517 1.643-5.056l23.709-5.641c.808-.192 1.505-.699 1.938-1.408l12.691-20.806c1.214-1.99 4.103-1.99 5.317 0z" fill="#ffd064"/><path d="m406.707 140.025 22.497 9.373c2.151.896 4.489-.802 4.301-3.125l-1.962-24.292c-.067-.828.2-1.648.74-2.278l15.866-18.499c1.517-1.769.624-4.517-1.643-5.056l-23.709-5.641c-.808-.192-1.505-.699-1.938-1.408l-12.691-20.806c-.607-.995-1.633-1.492-2.658-1.492 7.816 29.529 9.369 54.89 0 72.985.407-.001.814.079 1.197.239z" fill="#ffc250"/><g><path d="m327.179 443.961c0-4.143-3.357-7.5-7.5-7.5h-34.865c-4.143 0-7.5 3.357-7.5 7.5s3.357 7.5 7.5 7.5h34.865c4.143 0 7.5-3.357 7.5-7.5z"/><path d="m368.129 205.677c-.162-41.632-22.902-79.142-59.533-98.599l-.372-4.605 26.639-31.061c2.939-3.428 3.86-8.037 2.465-12.331-1.396-4.293-4.851-7.479-9.24-8.522l-39.809-9.472-.417-.683c-2.157-3.535-6.771-4.652-10.309-2.496-3.536 2.157-4.653 6.772-2.496 10.309l.886 1.452c1.771 2.9 4.683 5.015 7.99 5.803l37.241 8.86-24.921 29.058c-2.213 2.581-3.325 6.004-3.053 9.394l3.082 38.157-35.335-14.723c-3.141-1.31-6.741-1.309-9.88 0l-35.335 14.723 3.081-38.154c.275-3.389-.837-6.814-3.052-9.397l-24.922-29.057 37.244-8.86c3.308-.788 6.221-2.904 7.989-5.806l19.935-32.681 3.425 5.614c2.157 3.538 6.775 4.655 10.308 2.497 3.536-2.156 4.654-6.771 2.497-10.308l-5.266-8.634c-2.35-3.854-6.449-6.155-10.965-6.155-4.515 0-8.613 2.301-10.963 6.155l-21.309 34.933-39.806 9.47c-4.392 1.044-7.847 4.229-9.242 8.522-1.396 4.294-.476 8.903 2.464 12.333l26.639 31.059-.372 4.6c-34.541 18.373-57.191 53.616-59.359 92.748-.229 4.136 2.938 7.675 7.073 7.903.142.008.282.012.422.012 3.952 0 7.261-3.091 7.481-7.085 1.694-30.558 17.812-58.381 42.9-75.227l-1.44 17.835c-.363 4.499 1.599 8.77 5.251 11.424 3.651 2.652 8.317 3.203 12.489 1.466l37.771-15.737 37.773 15.738c4.177 1.738 8.841 1.182 12.487-1.467 3.652-2.654 5.614-6.925 5.251-11.423l-1.442-17.845c26.699 17.833 42.925 47.608 43.052 80.323.188 48.932 5.546 79.651 17.233 97.731-12.33 3.457-24.742 6.362-37.102 8.708 4.942-10.763 7.72-22.719 7.72-35.317v-58.249c0-4.868-3.644-9.044-8.477-9.712-19.653-2.715-34.352-8.819-44.936-18.662-3.512-3.267-8.83-3.535-12.644-.638-23.258 17.667-53.665 24.154-92.954 19.834-2.778-.305-5.555.588-7.63 2.446-2.07 1.855-3.258 4.514-3.258 7.293v57.688c0 12.603 2.78 24.562 7.725 35.329-12.375-2.348-24.806-5.258-37.156-8.72 9.575-14.8 14.885-37.979 16.588-71.98.208-4.137-2.978-7.658-7.115-7.865-4.176-.235-7.659 2.979-7.865 7.115-1.744 34.814-7.396 57.289-17.278 68.708-2.291 2.646-3.073 6.23-2.092 9.586.977 3.339 3.551 5.922 6.883 6.909 19.382 5.752 39.03 10.207 58.441 13.279 1.021 1.299 2.075 2.57 3.168 3.808l-11.899 5.538c-17.637 8.207-29.032 26.079-29.032 45.531v113.113c0 8.163 6.642 14.804 14.805 14.804h111.989c4.143 0 7.5-3.357 7.5-7.5s-3.357-7.5-7.5-7.5h-111.791v-112.918c0-13.642 7.992-26.176 20.361-31.932l17.372-8.085c6.519 5.04 13.784 9.153 21.604 12.144l-5.158 21.41c-1.802 7.479 1.395 15.204 7.952 19.224l18.204 11.161c2.852 1.748 6.048 2.621 9.245 2.621s6.396-.874 9.247-2.622l18.203-11.16c6.558-4.02 9.754-11.745 7.952-19.225l-5.157-21.409c7.821-2.99 15.085-7.104 21.605-12.144l17.373 8.085c12.368 5.756 20.36 18.29 20.36 31.932v112.918h-37.387c-4.143 0-7.5 3.357-7.5 7.5s3.357 7.5 7.5 7.5h37.583c8.163 0 14.804-6.641 14.804-14.804v-113.114c0-19.452-11.396-37.324-29.031-45.531l-11.9-5.538c1.096-1.241 2.153-2.516 3.176-3.819 19.396-3.074 39.021-7.523 58.378-13.267 3.335-.988 5.909-3.572 6.886-6.91.982-3.355.2-6.939-2.091-9.586-15.792-18.249-17.78-62.255-17.901-93.768zm-182.046 19.23c38.746 3.346 69.758-3.502 94.492-20.864 11.636 9.607 26.565 15.864 45.405 19.03v53.785c0 38.569-31.379 69.948-69.949 69.948-38.569 0-69.948-31.379-69.948-69.948zm90.767 156.238c.274 1.138-.212 2.312-1.209 2.925l-18.202 11.159c-.868.53-1.946.531-2.814.001l-18.203-11.16c-.997-.612-1.483-1.787-1.21-2.924l5.019-20.835c5.123.968 10.4 1.497 15.801 1.497 5.4 0 10.677-.528 15.8-1.496z"/><path d="m227.249 263.823c4.143 0 7.5-3.357 7.5-7.5v-.881c0-4.143-3.357-7.5-7.5-7.5s-7.5 3.357-7.5 7.5v.881c0 4.143 3.357 7.5 7.5 7.5z"/><path d="m284.814 263.823c4.143 0 7.5-3.357 7.5-7.5v-.881c0-4.143-3.357-7.5-7.5-7.5s-7.5 3.357-7.5 7.5v.881c0 4.143 3.358 7.5 7.5 7.5z"/><path d="m238.067 304.034c5.876 3.515 11.92 5.272 17.965 5.272 6.044 0 12.088-1.758 17.964-5.272 3.556-2.127 4.713-6.731 2.587-10.286-2.128-3.557-6.735-4.71-10.286-2.587-7.005 4.19-13.527 4.189-20.53 0-3.553-2.125-8.158-.968-10.286 2.587-2.127 3.555-.97 8.159 2.586 10.286z"/><path d="m137.633 155.11c3.02-2.193 4.642-5.723 4.342-9.442l-1.815-22.47 14.675-17.111c2.43-2.831 3.192-6.641 2.04-10.189-1.153-3.549-4.009-6.184-7.639-7.046l-21.932-5.218-11.74-19.246c-1.941-3.185-5.328-5.086-9.059-5.087 0 0-.001 0-.002 0-3.73 0-7.117 1.901-9.062 5.087l-11.737 19.246-21.931 5.217c-3.631.863-6.486 3.497-7.64 7.046-1.152 3.55-.391 7.358 2.038 10.189l14.676 17.112-1.814 22.471c-.3 3.72 1.322 7.249 4.341 9.441 2.99 2.172 6.842 2.659 10.32 1.21l20.81-8.67 20.81 8.67c3.442 1.434 7.3.984 10.319-1.21zm-27.047-22.009c-1.297-.54-2.688-.81-4.081-.81s-2.785.27-4.083.811l-15.858 6.607 1.383-17.119c.229-2.806-.692-5.639-2.522-7.77l-11.185-13.041 16.717-3.977c2.732-.651 5.139-2.399 6.603-4.799l8.945-14.666 8.947 14.667c1.463 2.398 3.869 4.146 6.604 4.798l16.713 3.977-11.185 13.042c-1.828 2.132-2.747 4.96-2.522 7.764l1.384 17.124z"/><path d="m455.88 95.897c-1.153-3.549-4.009-6.184-7.639-7.046l-21.932-5.218-11.74-19.246c-1.941-3.185-5.328-5.086-9.059-5.087 0 0-.001 0-.002 0-3.73 0-7.117 1.901-9.062 5.087l-11.736 19.247-21.931 5.217c-3.631.863-6.486 3.497-7.64 7.046-1.152 3.55-.391 7.358 2.038 10.189l14.676 17.111-1.814 22.472c-.3 3.72 1.322 7.249 4.341 9.441 2.99 2.172 6.842 2.659 10.32 1.21l20.81-8.67 20.81 8.67c3.443 1.434 7.301.983 10.32-1.21s4.642-5.723 4.342-9.442l-1.815-22.47 14.675-17.111c2.428-2.831 3.191-6.641 2.038-10.19zm-54.115-23.699.001.003c0-.001-.001-.002-.001-.003-.001 0-.001 0 0 0zm24.824 42.623c-1.828 2.132-2.747 4.96-2.522 7.764l1.384 17.124-15.859-6.608c-1.297-.54-2.688-.81-4.081-.81s-2.785.27-4.083.811l-15.858 6.607 1.383-17.119c.228-2.803-.69-5.634-2.521-7.77l-11.185-13.041 16.716-3.977c2.732-.651 5.139-2.399 6.603-4.799l8.945-14.666 8.947 14.667c1.463 2.398 3.869 4.146 6.604 4.798l16.713 3.977z"/></g></g></svg>